<svg id='Organic Bag Leaf' width='24' height='24' viewBox='0 0 24 24' xmlns='http://www.w3.org/2000/svg' xmlns:xlink='http://www.w3.org/1999/xlink'><rect width='24' height='24' stroke='none' fill='#000000' opacity='0'/>


<g transform="matrix(0.83 0 0 0.83 12 12)" >
<g style="" >
<g transform="matrix(1 0 0 1 0 0)" >
<path style="stroke: none; stroke-width: 1; stroke-dasharray: none; stroke-linecap: butt; stroke-dashoffset: 0; stroke-linejoin: miter; stroke-miterlimit: 4; fill: rgb(255,249,191); fill-rule: nonzero; opacity: 1;" transform=" translate(-12, -12)" d="M 20.5 20.5 L 3.5 20.5 C 2.16998 14.9114 2.16998 9.08863 3.5 3.5 L 20.5 3.5 C 21.83 9.08863 21.83 14.9114 20.5 20.5 Z" stroke-linecap="round" />
</g>
<g transform="matrix(1 0 0 1 0 3.26)" >
<path style="stroke: none; stroke-width: 1; stroke-dasharray: none; stroke-linecap: butt; stroke-dashoffset: 0; stroke-linejoin: miter; stroke-miterlimit: 4; fill: rgb(255,239,94); fill-rule: nonzero; opacity: 1;" transform=" translate(-12, -15.26)" d="M 12 15.5 C 8.244 15.5 4.88 13.372 2.561 10.012 C 2.36999 13.5349 2.68622 17.067 3.5 20.5 L 20.5 20.5 C 21.3138 17.067 21.63 13.5349 21.439 10.012 C 19.12 13.372 15.756 15.5 12 15.5 Z" stroke-linecap="round" />
</g>
<g transform="matrix(1 0 0 1 0 0)" >
<path style="stroke: rgb(25,25,25); stroke-width: 1; stroke-dasharray: none; stroke-linecap: round; stroke-dashoffset: 0; stroke-linejoin: round; stroke-miterlimit: 4; fill: none; fill-rule: nonzero; opacity: 1;" transform=" translate(-12, -12)" d="M 20.5 20.5 L 3.5 20.5 C 2.16998 14.9114 2.16998 9.08863 3.5 3.5 L 20.5 3.5 C 21.83 9.08863 21.83 14.9114 20.5 20.5 Z" stroke-linecap="round" />
</g>
<g transform="matrix(1 0 0 1 0 -10)" >
<path style="stroke: rgb(25,25,25); stroke-width: 1; stroke-dasharray: none; stroke-linecap: round; stroke-dashoffset: 0; stroke-linejoin: round; stroke-miterlimit: 4; fill: rgb(255,221,161); fill-rule: nonzero; opacity: 1;" transform=" translate(-12, -2)" d="M 21.06 1.81995 L 20.5 3.49995 L 3.49999 3.49995 L 2.93999 1.81995 C 2.8904 1.66956 2.87724 1.50955 2.90158 1.35308 C 2.92592 1.19661 2.98707 1.04816 3.07999 0.919946 C 3.17014 0.788811 3.2912 0.681895 3.43247 0.608644 C 3.57374 0.535393 3.73087 0.498061 3.88999 0.499946 L 20.11 0.499946 C 20.2691 0.498061 20.4263 0.535393 20.5675 0.608644 C 20.7088 0.681895 20.8298 0.788811 20.92 0.919946 C 21.0129 1.04816 21.0741 1.19661 21.0984 1.35308 C 21.1227 1.50955 21.1096 1.66956 21.06 1.81995 Z" stroke-linecap="round" />
</g>
<g transform="matrix(1 0 0 1 0 10)" >
<path style="stroke: rgb(25,25,25); stroke-width: 1; stroke-dasharray: none; stroke-linecap: round; stroke-dashoffset: 0; stroke-linejoin: round; stroke-miterlimit: 4; fill: rgb(255,188,68); fill-rule: nonzero; opacity: 1;" transform=" translate(-12, -22)" d="M 20.92 23.08 C 20.8298 23.2111 20.7088 23.3181 20.5675 23.3913 C 20.4263 23.4646 20.2691 23.5019 20.11 23.5 L 3.88999 23.5 C 3.73087 23.5019 3.57374 23.4646 3.43247 23.3913 C 3.2912 23.3181 3.17014 23.2111 3.07999 23.08 C 2.98707 22.9518 2.92592 22.8033 2.90158 22.6469 C 2.87724 22.4904 2.8904 22.3304 2.93999 22.18 L 3.49999 20.5 L 20.5 20.5 L 21.06 22.18 C 21.1096 22.3304 21.1227 22.4904 21.0984 22.6469 C 21.0741 22.8033 21.0129 22.9518 20.92 23.08 Z" stroke-linecap="round" />
</g>
<g transform="matrix(1 0 0 1 0 -0.83)" >
<path style="stroke: none; stroke-width: 1; stroke-dasharray: none; stroke-linecap: butt; stroke-dashoffset: 0; stroke-linejoin: miter; stroke-miterlimit: 4; fill: rgb(201,247,202); fill-rule: nonzero; opacity: 1;" transform=" translate(-12, -11.17)" d="M 15.767 6.88596 C 15.8458 6.84859 15.9331 6.8325 16.02 6.83928 C 16.107 6.84606 16.1907 6.87548 16.2628 6.92462 C 16.3349 6.97375 16.3929 7.04089 16.431 7.11937 C 16.4691 7.19785 16.486 7.28493 16.48 7.37196 C 16.321 9.63196 15.5 15.5 11.2 15.5 C 10.2235 15.5 9.28695 15.112 8.59644 14.4215 C 7.90593 13.731 7.51801 12.7945 7.51801 11.818 C 7.51801 10.8414 7.90593 9.9049 8.59644 9.21439 C 9.28695 8.52388 10.2235 8.13596 11.2 8.13596 C 12.7917 8.0353 14.3459 7.60991 15.767 6.88596 L 15.767 6.88596 Z" stroke-linecap="round" />
</g>
<g transform="matrix(1 0 0 1 0 -0.83)" >
<path style="stroke: none; stroke-width: 1; stroke-dasharray: none; stroke-linecap: butt; stroke-dashoffset: 0; stroke-linejoin: miter; stroke-miterlimit: 4; fill: rgb(120,235,123); fill-rule: nonzero; opacity: 1;" transform=" translate(-12, -11.17)" d="M 16.264 6.92402 C 16.1991 6.88178 16.125 6.85571 16.048 6.84802 C 15.62 9.50802 14.407 13.274 10.966 13.274 C 10.2512 13.2728 9.55228 13.0634 8.95453 12.6715 C 8.35678 12.2796 7.88611 11.722 7.6 11.067 C 7.54861 11.3141 7.52248 11.5657 7.522 11.818 C 7.522 12.7939 7.90938 13.7298 8.59902 14.4202 C 9.28867 15.1106 10.2242 15.499 11.2 15.5 C 15.5 15.5 16.321 9.63202 16.48 7.37202 C 16.4862 7.28499 16.4696 7.19785 16.4317 7.11926 C 16.3938 7.04067 16.336 6.97336 16.264 6.92402 L 16.264 6.92402 Z" stroke-linecap="round" />
</g>
<g transform="matrix(1 0 0 1 0 -0.83)" >
<path style="stroke: rgb(25,25,25); stroke-width: 1; stroke-dasharray: none; stroke-linecap: round; stroke-dashoffset: 0; stroke-linejoin: round; stroke-miterlimit: 4; fill: none; fill-rule: nonzero; opacity: 1;" transform=" translate(-12, -11.17)" d="M 15.767 6.88596 C 15.8458 6.84859 15.9331 6.8325 16.02 6.83928 C 16.107 6.84606 16.1907 6.87548 16.2628 6.92462 C 16.3349 6.97375 16.3929 7.04089 16.431 7.11937 C 16.4691 7.19785 16.486 7.28493 16.48 7.37196 C 16.321 9.63196 15.5 15.5 11.2 15.5 C 10.2235 15.5 9.28695 15.112 8.59644 14.4215 C 7.90593 13.731 7.51801 12.7945 7.51801 11.818 C 7.51801 10.8414 7.90593 9.9049 8.59644 9.21439 C 9.28695 8.52388 10.2235 8.13596 11.2 8.13596 C 12.7917 8.0353 14.3459 7.60991 15.767 6.88596 L 15.767 6.88596 Z" stroke-linecap="round" />
</g>
<g transform="matrix(1 0 0 1 -2.03 1.86)" >
<path style="stroke: rgb(25,25,25); stroke-width: 1; stroke-dasharray: none; stroke-linecap: round; stroke-dashoffset: 0; stroke-linejoin: round; stroke-miterlimit: 4; fill: none; fill-rule: nonzero; opacity: 1;" transform=" translate(-9.97, -13.86)" d="M 7.51801 16.727 C 7.83315 15.4558 8.44117 14.2759 9.29352 13.2815 C 10.1459 12.2871 11.2189 11.5058 12.427 11" stroke-linecap="round" />
</g>
</g>
</g>
</svg>